# xmcd
#
# Track frame offsets: 
#        150
#        16607
#        34947
#        52165
#        64207
#        77455
#        93490
#        106160
#        121567
#        138950
#        154190
#        167562
#        181802
#        196310
#        207665
#        217277
#        227385
#        235820
#        252832
#        273557
#
# Disc length: 3843 seconds
#
# Revision: 2
# Processed by: cddbd v1.4PL0 Copyright (c) Steve Scherf et al.
# Submitted via: ExactAudioCopy v0.90b4
#
DISCID=0e0f0114
DTITLE=С - С20
DYEAR=2001
DGENRE=Pop
TTITLE0=
TTITLE1=ļ
TTITLE2=ǰ·
TTITLE3=ңķ
TTITLE4=ͬ·
TTITLE5=ҹ
TTITLE6=ÿջ
TTITLE7=ɳĹ£
TTITLE8=ϲ
TTITLE9=ѩд
TTITLE10=ϣ
TTITLE11=ȥ
TTITLE12=ݲ˵Ĺ
TTITLE13=С
TTITLE14='ƶ
TTITLE15='
TTITLE16=
TTITLE17=ٲҪ
TTITLE18=ů
TTITLE19=ɫڸ
EXTD=19785111213141617\n19793691520\n1980
EXTD=781018\n198112419
EXTT0=
EXTT1=
EXTT2=
EXTT3=
EXTT4=
EXTT5=
EXTT6=
EXTT7=
EXTT8=
EXTT9=
EXTT10=
EXTT11=
EXTT12=
EXTT13=
EXTT14=
EXTT15=
EXTT16=
EXTT17=
EXTT18=
EXTT19=
PLAYORDER=
